<svg width="374" height="49" viewBox="0 0 374 49" fill="none" xmlns="http://www.w3.org/2000/svg">
<path d="M0.140058 24.5C0.140058 13.79 5.80251e-05 -3.33786e-06 15.2601 -3.33786e-06C26.2501 -3.33786e-06 29.2601 7.21 30.1001 15.19C30.1701 15.68 29.8901 16.17 29.4001 16.31L19.6001 19.53C19.2501 19.6 18.9001 19.6 18.6201 19.39C18.3401 19.18 18.2001 18.9 18.1301 18.55C17.9201 15.05 17.2201 12.18 15.2601 12.18C12.1801 12.18 12.2501 19.11 12.2501 24.5C12.2501 29.96 12.1801 36.89 15.2601 36.89C17.2201 36.89 17.9201 34.02 18.1301 30.52C18.2001 30.17 18.3401 29.89 18.6201 29.68C18.9001 29.47 19.2501 29.47 19.6001 29.54L29.4001 32.76C29.8901 32.9 30.1701 33.39 30.1001 33.88C29.2601 41.86 26.2501 49 15.2601 49C5.80251e-05 49 0.140058 35.28 0.140058 24.5ZM47.1155 36.89C50.6155 36.89 50.1255 26.74 50.1955 24.5C50.1955 19.11 50.1955 12.18 47.1155 12.18C44.1055 12.18 44.1055 19.11 44.1055 24.5C44.1055 26.74 43.6155 36.89 47.1155 36.89ZM31.9955 24.5C31.9955 13.16 32.1355 -3.33786e-06 47.1155 -3.33786e-06C62.0955 -3.33786e-06 62.3055 13.16 62.3055 24.5C62.3055 35.91 62.0955 49 47.1155 49C32.1355 49 31.9955 35.91 31.9955 24.5ZM65.6497 1.12C65.6497 0.489999 66.0697 -3.33786e-06 66.6997 -3.33786e-06H76.9897C77.4097 -3.33786e-06 77.8997 0.349996 77.9697 0.769999L82.3097 17.92C82.4497 18.34 82.7997 18.55 83.1497 18.48C83.4997 18.41 83.7797 18.13 83.7797 17.71V1.12C83.7797 0.489999 84.2697 -3.33786e-06 84.8997 -3.33786e-06H94.8397C95.4697 -3.33786e-06 95.8897 0.489999 95.8897 1.12V47.95C95.8897 48.58 95.4697 49 94.8397 49H84.5497C84.1297 49 83.7097 48.72 83.5697 48.3L79.2297 31.08C79.0897 30.73 78.7397 30.52 78.3897 30.59C78.0397 30.66 77.7597 30.94 77.7597 31.36V47.95C77.7597 48.58 77.2697 49 76.6397 49H66.6997C66.0697 49 65.6497 48.58 65.6497 47.95V1.12ZM114.381 36.89C117.881 36.89 117.391 26.74 117.461 24.5C117.461 19.11 117.461 12.18 114.381 12.18C111.371 12.18 111.371 19.11 111.371 24.5C111.371 26.74 110.881 36.89 114.381 36.89ZM99.2612 24.5C99.2612 13.16 99.4012 -3.33786e-06 114.381 -3.33786e-06C129.361 -3.33786e-06 129.571 13.16 129.571 24.5C129.571 35.91 129.361 49 114.381 49C99.4012 49 99.2612 35.91 99.2612 24.5ZM132.005 24.5C132.005 13.79 131.865 -3.33786e-06 147.125 -3.33786e-06C158.115 -3.33786e-06 161.125 7.21 161.965 15.19C162.035 15.68 161.755 16.17 161.265 16.31L151.465 19.53C151.115 19.6 150.765 19.6 150.485 19.39C150.205 19.18 150.065 18.9 149.995 18.55C149.785 15.05 149.085 12.18 147.125 12.18C144.045 12.18 144.115 19.11 144.115 24.5C144.115 29.96 144.045 36.89 147.125 36.89C149.085 36.89 149.785 34.02 149.995 30.52C150.065 30.17 150.205 29.89 150.485 29.68C150.765 29.47 151.115 29.47 151.465 29.54L161.265 32.76C161.755 32.9 162.035 33.39 161.965 33.88C161.125 41.86 158.115 49 147.125 49C131.865 49 132.005 35.28 132.005 24.5ZM164.771 1.12C164.771 0.489999 165.191 -3.33786e-06 165.821 -3.33786e-06H193.961C194.591 -3.33786e-06 195.081 0.489999 195.081 1.12V11.06C195.081 11.69 194.591 12.18 193.961 12.18H177.931C177.371 12.18 176.881 12.6 176.881 13.23V17.43C176.881 17.99 177.371 18.48 177.931 18.48H190.321C190.881 18.48 191.371 18.97 191.371 19.53V29.54C191.371 30.1 190.881 30.59 190.321 30.59H177.931C177.371 30.59 176.881 31.08 176.881 31.64V35.84C176.881 36.4 177.371 36.89 177.931 36.89H193.961C194.591 36.89 195.081 37.38 195.081 37.94V47.95C195.081 48.58 194.591 49 193.961 49H165.821C165.191 49 164.771 48.58 164.771 47.95C164.771 32.34 164.771 16.73 164.771 1.12ZM210.2 35.77C210.2 35.28 210.48 34.86 210.9 34.72L220.98 31.43C221.33 31.36 221.61 31.36 221.89 31.57C222.17 31.78 222.38 32.06 222.38 32.41L222.45 33.67C222.45 33.74 222.45 33.74 222.45 33.74C222.45 35.84 223.78 36.89 225.46 36.89C227.21 36.89 228.54 35.84 228.54 33.74C228.54 26.88 210.2 30.94 210.2 15.47C210.2 5.32 216.78 -3.33786e-06 225.32 -3.33786e-06C233.58 -3.33786e-06 240.23 4.76 240.65 13.3C240.65 13.79 240.37 14.21 239.88 14.35L229.87 17.64C229.52 17.71 229.17 17.64 228.89 17.5C228.61 17.29 228.47 17.01 228.47 16.66L228.4 15.4C228.4 15.33 228.4 15.33 228.4 15.33C228.33 13.23 227.07 12.18 225.32 12.18C223.64 12.18 222.31 13.23 222.31 15.33C222.31 22.19 240.65 18.13 240.65 33.6C240.65 43.75 234 49 225.46 49C217.2 49 210.62 44.31 210.2 35.77ZM257.867 36.89C261.367 36.89 260.877 26.74 260.947 24.5C260.947 19.11 260.947 12.18 257.867 12.18C254.857 12.18 254.857 19.11 254.857 24.5C254.857 26.74 254.367 36.89 257.867 36.89ZM242.747 24.5C242.747 13.16 242.887 -3.33786e-06 257.867 -3.33786e-06C272.847 -3.33786e-06 273.057 13.16 273.057 24.5C273.057 35.91 272.847 49 257.867 49C242.887 49 242.747 35.91 242.747 24.5ZM294.532 16.94V15.19C294.532 13.51 293.202 12.18 291.522 12.18H289.562C289.002 12.18 288.512 12.6 288.512 13.23V18.9C288.512 19.46 289.002 19.95 289.562 19.95H291.522C293.202 19.95 294.532 18.55 294.532 16.94ZM288.512 35.84C288.512 36.4 289.002 36.89 289.562 36.89H291.522C293.202 36.89 294.532 35.56 294.532 33.88V32.13C294.532 30.45 293.202 29.12 291.522 29.12H289.562C289.002 29.12 288.512 29.61 288.512 30.17V35.84ZM276.402 47.95V1.12C276.402 0.489999 276.822 -3.33786e-06 277.452 -3.33786e-06H292.152C300.132 -3.33786e-06 306.712 5.6 306.712 13.58C306.712 17.01 306.362 23.8 298.172 23.8C297.892 23.8 297.472 24.01 297.472 24.5C297.472 25.06 297.892 25.27 298.172 25.27C306.362 25.27 306.712 32.06 306.712 35.49C306.712 43.47 300.132 49 292.152 49H277.452C276.822 49 276.402 48.58 276.402 47.95ZM325.154 24.5C328.654 24.5 328.164 20.72 328.164 18.34C328.164 15.96 328.724 12.18 325.154 12.18H323.194C322.634 12.18 322.144 12.6 322.144 13.23V23.45C322.144 24.08 322.634 24.5 323.194 24.5H325.154ZM324.244 37.38C324.104 36.96 323.754 36.68 323.264 36.68H323.194C322.634 36.68 322.144 37.17 322.144 37.73V47.95C322.144 48.58 321.654 49 321.094 49H311.084C310.454 49 310.034 48.58 310.034 47.95V1.12C310.034 0.489999 310.454 -3.33786e-06 311.084 -3.33786e-06H325.154C336.214 -3.33786e-06 340.344 8.68 340.344 18.34C340.344 23.87 338.944 29.12 335.724 32.55C335.444 32.83 335.374 33.25 335.444 33.6L339.854 47.67C339.994 47.95 339.924 48.3 339.714 48.58C339.504 48.86 339.224 49 338.874 49H328.724C328.234 49 327.814 48.72 327.674 48.3L324.244 37.38ZM343.394 1.12C343.394 0.489999 343.814 -3.33786e-06 344.444 -3.33786e-06H372.584C373.214 -3.33786e-06 373.704 0.489999 373.704 1.12V11.06C373.704 11.69 373.214 12.18 372.584 12.18H356.554C355.994 12.18 355.504 12.6 355.504 13.23V17.43C355.504 17.99 355.994 18.48 356.554 18.48H368.944C369.504 18.48 369.994 18.97 369.994 19.53V29.54C369.994 30.1 369.504 30.59 368.944 30.59H356.554C355.994 30.59 355.504 31.08 355.504 31.64V35.84C355.504 36.4 355.994 36.89 356.554 36.89H372.584C373.214 36.89 373.704 37.38 373.704 37.94V47.95C373.704 48.58 373.214 49 372.584 49H344.444C343.814 49 343.394 48.58 343.394 47.95C343.394 32.34 343.394 16.73 343.394 1.12Z" fill="#BB0694"/>
</svg>
