<svg width="307" height="52" viewBox="0 0 307 52" fill="none" xmlns="http://www.w3.org/2000/svg">
<path d="M1.46992 49.4199C0.629922 49.2099 -7.80374e-05 48.3699 0.069922 47.4599C0.069922 47.1099 0.069922 46.7599 0.069922 46.5499C0.629922 33.3199 2.72992 21.1399 5.73992 13.4399C7.76992 8.11994 10.4299 4.47994 13.1599 2.65994C15.8199 0.769939 18.7599 0.279937 21.7699 1.11994C24.0799 1.74994 26.1799 3.21994 27.9299 5.59994C29.7499 8.11994 31.2199 11.8999 32.1999 16.3099C34.5799 27.2999 34.4399 43.0499 34.2999 47.8799C34.2999 48.7899 33.6699 49.5599 32.7599 49.7699C30.0299 50.3999 27.2299 50.3299 24.5699 49.4199C23.7299 49.1399 23.2399 48.3699 23.2399 47.5299C23.2399 45.9199 23.3099 43.1199 23.2399 39.6899C22.3999 39.7599 21.4899 39.8299 20.6499 39.8999C17.5699 40.3199 14.5599 40.8099 11.4799 41.4399C11.3399 43.5399 11.1999 45.7099 11.1299 47.8099C11.0599 48.7199 10.4999 49.4899 9.58992 49.6999C6.92992 50.2599 4.19992 50.1899 1.46992 49.4199ZM13.6499 25.6899C13.3699 27.0199 13.0899 28.4199 12.8799 29.8899C14.9799 29.4699 17.1499 29.1899 19.3199 28.9099C20.5099 28.7699 21.6299 28.6999 22.7499 28.5599C22.6799 27.9999 22.6799 27.4399 22.6099 26.8799C22.1199 22.5399 21.4899 18.3399 20.3699 15.0499C20.0199 14.1399 19.6699 13.3699 19.3199 12.6699C19.2499 12.5299 19.1099 12.3899 19.0399 12.2499C18.6199 12.6699 18.0599 13.3699 17.7099 13.9299C16.0299 16.7299 14.6999 20.7899 13.6499 25.6899ZM37.3263 13.0899C36.4863 13.0899 35.7863 12.6699 35.5063 11.9699C33.9663 8.67994 34.1063 5.80994 35.2963 3.14994C35.6463 2.44994 36.3463 2.02994 37.0463 1.95994C42.8563 1.88994 68.0563 1.60994 69.1763 1.53994C70.0163 1.53994 70.8563 2.16994 71.0663 3.00994C71.9063 5.73994 71.9063 8.53994 71.2063 11.1999C70.9963 12.0399 70.2263 12.6699 69.3163 12.6699C69.3163 12.6699 64.6963 12.7399 58.9563 12.8099C58.6063 21.7699 57.6963 42.3499 57.4863 47.8099C57.4863 48.6499 56.8563 49.4199 56.0163 49.6299C53.2163 50.4699 50.3463 50.3999 47.6163 49.3499C46.8463 48.9999 46.3563 48.2299 46.4263 47.3899L47.8263 12.9499C42.5063 13.0199 38.0963 13.0899 37.3263 13.0899ZM117.492 10.8499C115.392 10.4299 113.852 8.32994 113.992 5.87994C114.062 3.63994 115.602 2.02994 117.492 1.74994C118.892 1.53994 119.732 1.53994 121.062 1.88994C122.742 2.30994 124.212 4.12994 124.142 6.36994C124.002 8.74994 122.462 10.7099 120.362 10.9899C119.102 11.1299 118.752 11.1299 117.492 10.8499ZM113.992 34.2299C113.222 33.8799 112.732 33.1099 112.732 32.2699C112.872 28.7699 113.292 19.1799 113.432 15.3999C113.502 14.4199 114.202 13.6499 115.112 13.5099C117.912 13.0899 120.572 13.2299 123.092 13.7899C123.932 13.9999 124.562 14.8399 124.562 15.8199C124.422 19.5999 124.002 29.1199 123.792 32.6899C123.792 33.5299 123.232 34.2999 122.392 34.5099C119.522 35.2799 116.722 35.2799 113.992 34.2299ZM125.612 39.5499C127.572 42.2099 128.062 45.1499 127.222 48.2999C127.012 49.0699 126.382 49.6299 125.612 49.6999C119.872 50.5399 115.112 49.8399 110.912 48.2999C106.502 46.7599 102.722 44.3099 98.9416 41.9299C96.0016 40.1099 93.1316 38.3599 89.5616 37.4499C87.9516 38.4299 86.6216 39.1299 86.0616 39.4099C85.9216 43.1199 85.7816 46.1999 85.6416 47.8099C85.6416 48.6499 85.0116 49.4199 84.2416 49.6299C81.3716 50.4699 78.5716 50.3999 75.8416 49.3499C75.0716 48.9999 74.5116 48.2299 74.5816 47.3899C74.7916 42.9799 76.4716 5.24994 76.5416 4.40994C76.6116 2.79994 77.9416 1.53994 79.5516 1.46994C80.8116 1.39994 82.0716 1.39994 82.6316 1.39994C87.0416 1.39994 92.0116 1.67994 96.1416 2.72994C101.952 4.19994 106.292 7.27994 107.972 11.5499C109.722 16.0999 108.392 20.9999 104.822 25.4799C103.842 26.7399 102.652 27.9999 101.322 29.1199C100.972 29.4699 100.692 29.6799 100.412 29.9599C100.972 30.2399 101.462 30.5199 101.952 30.7999C106.152 33.2499 109.932 36.1899 114.622 37.8699C117.282 38.7799 120.222 39.2699 123.792 38.7799C124.492 38.6399 125.192 38.9899 125.612 39.5499ZM96.7716 17.7099C97.2616 16.9399 97.8916 16.3099 97.6116 15.5399C97.1916 14.5599 95.9316 14.2799 94.6716 13.8599C92.5716 13.1599 90.1916 12.8099 87.7416 12.5999C87.6016 12.5999 87.4616 12.5999 87.2516 12.5999L86.6216 26.3199C88.5116 25.1299 90.6816 23.6599 92.5716 22.0499C94.2516 20.7199 95.7216 19.2499 96.7716 17.7099ZM132.111 49.8399C131.131 49.6999 130.361 48.7899 130.431 47.8099C130.711 42.5599 132.111 12.8099 132.531 3.91994C132.601 2.44994 133.791 1.32994 135.191 1.18994C140.161 0.909938 151.151 0.629941 157.031 3.07994C162.281 5.24994 164.801 9.02994 164.171 14.0699C163.751 17.2199 162.281 19.9499 159.971 22.3299C160.531 22.6099 161.021 22.8199 161.511 23.1699C166.551 26.1099 168.791 30.5899 167.461 35.7699C165.781 42.5599 161.091 46.5499 155.421 48.6499C149.541 50.8899 142.401 50.8899 137.851 50.5399C136.101 50.4699 133.721 50.1199 132.111 49.8399ZM143.311 11.9699L142.891 19.3899C144.571 18.8299 146.391 18.1299 148.211 17.2199C149.541 16.5199 150.871 15.6799 151.921 14.6999C151.991 14.5599 152.131 14.4899 152.201 14.4199C152.411 14.2099 152.481 13.8599 152.411 13.5799C152.341 13.3699 152.131 13.0899 151.851 13.0199C150.101 12.5299 147.931 12.2499 145.691 12.1099C144.921 12.0399 144.081 12.0399 143.311 11.9699ZM142.331 31.4299L141.911 39.6899C144.151 39.6899 146.671 39.5499 149.121 38.9899C152.131 38.2899 155.141 37.0999 156.401 34.1599C156.611 33.5999 156.401 33.0399 155.911 32.6899C154.511 31.9199 152.621 31.4299 150.521 31.1499C148.001 30.8699 145.131 30.9399 142.331 31.4299ZM188.265 50.1899C183.225 50.0499 179.445 48.2299 176.575 45.4299C172.795 41.6499 170.835 35.9099 170.695 29.5399C170.695 29.5399 171.675 9.02994 171.955 3.21994C171.955 2.30994 172.655 1.53994 173.565 1.32994C176.295 0.909938 178.955 1.11994 181.545 1.81994C182.455 2.09994 183.015 2.93994 183.015 3.84994C182.735 9.51994 181.755 29.2599 181.755 29.2599C181.825 32.0599 182.385 34.7199 183.715 36.6799C184.695 38.1499 186.305 39.0599 188.615 39.0599C189.595 39.1299 190.505 38.7799 191.275 38.2899C192.255 37.6599 193.025 36.6799 193.585 35.6299C194.775 33.4599 195.055 28.9799 195.195 23.9399C195.475 17.1499 195.335 9.58994 195.405 3.91994C195.405 3.00994 196.035 2.23994 196.945 2.02994C199.465 1.46994 202.125 1.60994 204.995 2.30994C205.835 2.51994 206.465 3.35994 206.465 4.26994C206.395 10.9899 206.675 20.5099 206.115 28.2099C205.695 33.6699 204.785 38.2899 203.385 40.9499C201.915 43.6099 199.885 45.9199 197.435 47.5299C194.845 49.2799 191.765 50.2599 188.265 50.1899ZM267.488 23.0999C269.028 25.9699 270.008 29.5399 269.588 33.6699C269.098 39.4799 266.718 43.6799 263.778 46.3399C260.838 48.9999 257.268 50.2599 253.768 50.1899C249.988 50.1199 246.138 48.4399 243.408 45.1499C240.608 41.8599 238.788 36.9599 239.488 30.8699C240.118 24.4299 243.198 19.9499 246.838 17.3599C250.408 14.9099 254.678 14.2799 258.598 15.3999C261.748 16.3799 265.318 18.9699 267.488 23.0999ZM258.528 32.6199C258.738 31.0099 258.388 29.5399 257.758 28.3499C257.128 27.2299 256.288 26.3199 255.448 26.0399C254.118 25.6899 252.858 26.4599 251.948 27.7199C251.178 28.8399 250.688 30.2399 250.548 31.9899C250.268 34.1599 250.548 35.9799 251.388 37.3099C251.948 38.3599 252.928 39.0599 253.978 39.0599C255.028 39.1299 256.008 38.4999 256.848 37.5199C257.758 36.3299 258.388 34.7199 258.528 32.6199ZM249.148 13.3699C244.808 14.1399 240.398 13.9999 235.918 13.5099C235.498 22.8899 234.658 42.4899 234.448 47.8099C234.378 48.6499 233.818 49.4199 232.978 49.6299C230.178 50.4699 227.308 50.3999 224.578 49.3499C223.808 48.9999 223.318 48.2299 223.388 47.3899C223.598 42.0699 224.438 21.9099 224.858 12.3899C221.358 12.1799 217.858 12.3199 214.288 13.4399C213.658 13.6499 212.888 13.5099 212.328 13.0199C210.158 10.9199 209.248 8.11994 209.318 4.82994C209.388 3.98994 209.878 3.21994 210.718 3.00994C211.348 2.79994 212.118 2.51994 212.678 2.37994C217.788 1.11994 222.828 1.04994 227.798 1.46994C233.118 1.95994 238.368 2.93994 243.338 2.79994C246.488 2.72994 249.498 2.16994 252.438 0.41994C253.068 0.06994 253.908 0.06994 254.538 0.489939C256.988 2.09994 258.528 4.47994 259.438 7.48994C259.648 8.32994 259.298 9.23994 258.598 9.65994C255.518 11.6199 252.368 12.7399 249.148 13.3699ZM274.16 46.3399C274.16 46.3399 273.74 45.9899 273.25 45.6399C272.62 45.0799 272.34 44.0999 272.69 43.3299C273.88 40.5999 275.84 38.4999 278.57 37.0299C279.2 36.7499 279.9 36.7499 280.53 37.1699C281.37 37.7299 282.63 38.5699 283.19 38.7799C285.92 40.0399 288.86 40.2499 291.31 39.8999C292.08 39.7599 292.99 39.4799 293.69 39.1999L293.48 38.9899C292.64 38.2899 291.66 37.6599 290.61 37.0299C286.97 34.8599 282.77 32.6899 279.97 29.7499C276.61 26.2499 274.65 21.8399 275.91 15.6799C277.94 6.15994 285.64 0.41994 292.29 0.139939C296.21 -5.91278e-05 299.99 1.39994 302.79 4.75994C305.03 7.48994 306.78 11.7599 306.78 17.9199C306.78 17.9199 306.71 19.5999 306.64 20.7199C306.57 21.4899 306.15 22.1899 305.45 22.4699C302.58 23.5199 298.45 23.0299 296.42 21.6999C295.86 21.2799 295.51 20.6499 295.58 19.9499C295.58 19.1099 295.65 17.9199 295.65 17.9199C295.65 15.5399 295.37 13.7199 294.6 12.4599C294.18 11.6199 293.55 11.1999 292.78 11.2699C290.12 11.3399 287.6 14.1399 286.83 17.9199C286.06 21.5599 288.93 23.0999 291.52 24.7099C295.09 26.8799 298.87 28.7699 301.32 31.1499C304.33 34.0899 305.87 37.5899 304.96 42.1399C304.54 44.1699 303.28 46.1999 301.04 47.8799C298.94 49.3499 295.72 50.6099 291.94 51.0299C286.41 51.5899 279.76 50.3999 274.16 46.3399Z" fill="#BD1B18"/>
</svg>
